<svg xmlns="http://www.w3.org/2000/svg" viewBox="0 0 64 64" width="64" height="64">
  <rect x="2" y="2" width="60" height="60" rx="13" fill="#0E0F13"/>
  <rect x="2.5" y="2.5" width="59" height="59" rx="12.5" fill="none" stroke="#2B323E"/>
  <!-- round function buttons (top row) -->
  <circle cx="13" cy="12" r="3.4" fill="#14171D" stroke="#2B323E" stroke-width="0.8"/>
  <circle cx="24" cy="12" r="3.4" fill="#18D45B"/>
  <circle cx="35" cy="12" r="3.4" fill="#14171D" stroke="#2B323E" stroke-width="0.8"/>
  <circle cx="46" cy="12" r="3.4" fill="#7A2BFF"/>
  <!-- 4x4 pad grid -->
  <g>
    <rect x="9.6"  y="20" width="7.2" height="7.2" rx="2" fill="#14171D" stroke="#2B323E" stroke-width="0.7"/>
    <rect x="20.6" y="20" width="7.2" height="7.2" rx="2" fill="#18D45B"/>
    <rect x="31.6" y="20" width="7.2" height="7.2" rx="2" fill="#18D45B"/>
    <rect x="42.6" y="20" width="7.2" height="7.2" rx="2" fill="#14171D" stroke="#2B323E" stroke-width="0.7"/>

    <rect x="9.6"  y="31" width="7.2" height="7.2" rx="2" fill="#14171D" stroke="#2B323E" stroke-width="0.7"/>
    <rect x="20.6" y="31" width="7.2" height="7.2" rx="2" fill="#14171D" stroke="#2B323E" stroke-width="0.7"/>
    <rect x="31.6" y="31" width="7.2" height="7.2" rx="2" fill="#FFB020"/>
    <rect x="42.6" y="31" width="7.2" height="7.2" rx="2" fill="#14171D" stroke="#2B323E" stroke-width="0.7"/>

    <rect x="9.6"  y="42" width="7.2" height="7.2" rx="2" fill="#FFB020"/>
    <rect x="20.6" y="42" width="7.2" height="7.2" rx="2" fill="#14171D" stroke="#2B323E" stroke-width="0.7"/>
    <rect x="31.6" y="42" width="7.2" height="7.2" rx="2" fill="#14171D" stroke="#2B323E" stroke-width="0.7"/>
    <rect x="42.6" y="42" width="7.2" height="7.2" rx="2" fill="#18D45B"/>
  </g>
  <!-- right scene column -->
  <circle cx="55" cy="23.6" r="3.4" fill="#14171D" stroke="#2B323E" stroke-width="0.8"/>
  <circle cx="55" cy="34.6" r="3.4" fill="#FFB020"/>
  <circle cx="55" cy="45.6" r="3.4" fill="#14171D" stroke="#2B323E" stroke-width="0.8"/>
</svg>
